<mxfile host="app.diagrams.net" agent="Mozilla/5.0 (Windows NT 10.0; Win64; x64) AppleWebKit/537.36 (KHTML, like Gecko) Chrome/135.0.0.0 Safari/537.36" version="26.2.8">
  <diagram name="Halaman-1" id="vyZLwoCj5-t8v7ZURkhA">
    <mxGraphModel dx="1580" dy="995" grid="1" gridSize="10" guides="1" tooltips="1" connect="1" arrows="1" fold="1" page="1" pageScale="1" pageWidth="827" pageHeight="1169" math="0" shadow="0">
      <root>
        <mxCell id="0" />
        <mxCell id="1" parent="0" />
        <mxCell id="YbyOzePQaVwtb7WUy6Pw-40" style="edgeStyle=orthogonalEdgeStyle;rounded=0;orthogonalLoop=1;jettySize=auto;html=1;entryX=0.5;entryY=0;entryDx=0;entryDy=0;" edge="1" parent="1" source="YbyOzePQaVwtb7WUy6Pw-1" target="YbyOzePQaVwtb7WUy6Pw-37">
          <mxGeometry relative="1" as="geometry" />
        </mxCell>
        <mxCell id="YbyOzePQaVwtb7WUy6Pw-41" style="edgeStyle=orthogonalEdgeStyle;rounded=0;orthogonalLoop=1;jettySize=auto;html=1;entryX=0.5;entryY=0;entryDx=0;entryDy=0;" edge="1" parent="1" source="YbyOzePQaVwtb7WUy6Pw-1" target="YbyOzePQaVwtb7WUy6Pw-36">
          <mxGeometry relative="1" as="geometry" />
        </mxCell>
        <mxCell id="YbyOzePQaVwtb7WUy6Pw-1" value="start" style="rounded=0;whiteSpace=wrap;html=1;fillColor=light-dark(#FFFFFF,#F6F6F6);fontColor=light-dark(#000000,#000000);" vertex="1" parent="1">
          <mxGeometry x="219.97000000000003" width="140" height="70" as="geometry" />
        </mxCell>
        <mxCell id="YbyOzePQaVwtb7WUy6Pw-31" style="edgeStyle=orthogonalEdgeStyle;rounded=0;orthogonalLoop=1;jettySize=auto;html=1;entryX=0;entryY=0.5;entryDx=0;entryDy=0;" edge="1" parent="1" source="YbyOzePQaVwtb7WUy6Pw-2" target="YbyOzePQaVwtb7WUy6Pw-30">
          <mxGeometry relative="1" as="geometry" />
        </mxCell>
        <mxCell id="YbyOzePQaVwtb7WUy6Pw-35" value="Tidak" style="edgeLabel;html=1;align=center;verticalAlign=middle;resizable=0;points=[];" vertex="1" connectable="0" parent="YbyOzePQaVwtb7WUy6Pw-31">
          <mxGeometry x="-0.134" y="-3" relative="1" as="geometry">
            <mxPoint as="offset" />
          </mxGeometry>
        </mxCell>
        <mxCell id="YbyOzePQaVwtb7WUy6Pw-33" style="edgeStyle=orthogonalEdgeStyle;rounded=0;orthogonalLoop=1;jettySize=auto;html=1;entryX=0.5;entryY=0;entryDx=0;entryDy=0;" edge="1" parent="1" source="YbyOzePQaVwtb7WUy6Pw-2" target="YbyOzePQaVwtb7WUy6Pw-19">
          <mxGeometry relative="1" as="geometry" />
        </mxCell>
        <mxCell id="YbyOzePQaVwtb7WUy6Pw-34" value="Iya" style="edgeLabel;html=1;align=center;verticalAlign=middle;resizable=0;points=[];" vertex="1" connectable="0" parent="YbyOzePQaVwtb7WUy6Pw-33">
          <mxGeometry x="0.0076" relative="1" as="geometry">
            <mxPoint as="offset" />
          </mxGeometry>
        </mxCell>
        <mxCell id="YbyOzePQaVwtb7WUy6Pw-2" value="suaraMasuk" style="rounded=0;whiteSpace=wrap;html=1;fillColor=light-dark(#FFFFFF,#FFFFFF);fontColor=light-dark(#000000,#000000);" vertex="1" parent="1">
          <mxGeometry x="219.97" y="260" width="140" height="70" as="geometry" />
        </mxCell>
        <mxCell id="YbyOzePQaVwtb7WUy6Pw-9" style="edgeStyle=orthogonalEdgeStyle;rounded=0;orthogonalLoop=1;jettySize=auto;html=1;entryX=0;entryY=0.5;entryDx=0;entryDy=0;" edge="1" parent="1" source="YbyOzePQaVwtb7WUy6Pw-4" target="YbyOzePQaVwtb7WUy6Pw-8">
          <mxGeometry relative="1" as="geometry" />
        </mxCell>
        <mxCell id="YbyOzePQaVwtb7WUy6Pw-12" value="Iya" style="edgeLabel;html=1;align=center;verticalAlign=middle;resizable=0;points=[];" vertex="1" connectable="0" parent="YbyOzePQaVwtb7WUy6Pw-9">
          <mxGeometry x="-0.1" relative="1" as="geometry">
            <mxPoint as="offset" />
          </mxGeometry>
        </mxCell>
        <mxCell id="YbyOzePQaVwtb7WUy6Pw-10" style="edgeStyle=orthogonalEdgeStyle;rounded=0;orthogonalLoop=1;jettySize=auto;html=1;entryX=0.5;entryY=0;entryDx=0;entryDy=0;" edge="1" parent="1" source="YbyOzePQaVwtb7WUy6Pw-4" target="YbyOzePQaVwtb7WUy6Pw-5">
          <mxGeometry relative="1" as="geometry" />
        </mxCell>
        <mxCell id="YbyOzePQaVwtb7WUy6Pw-11" value="Tidak" style="edgeLabel;html=1;align=center;verticalAlign=middle;resizable=0;points=[];" vertex="1" connectable="0" parent="YbyOzePQaVwtb7WUy6Pw-10">
          <mxGeometry y="-4" relative="1" as="geometry">
            <mxPoint as="offset" />
          </mxGeometry>
        </mxCell>
        <mxCell id="YbyOzePQaVwtb7WUy6Pw-4" value="Pilih Nurhadi" style="rhombus;whiteSpace=wrap;html=1;fillColor=light-dark(#FFFFFF,#FFFFFF);fontColor=light-dark(#000000,#0F0F0F);" vertex="1" parent="1">
          <mxGeometry x="219.97" y="500" width="100" height="100" as="geometry" />
        </mxCell>
        <mxCell id="YbyOzePQaVwtb7WUy6Pw-14" style="edgeStyle=orthogonalEdgeStyle;rounded=0;orthogonalLoop=1;jettySize=auto;html=1;entryX=0.5;entryY=0;entryDx=0;entryDy=0;" edge="1" parent="1" source="YbyOzePQaVwtb7WUy6Pw-5" target="YbyOzePQaVwtb7WUy6Pw-13">
          <mxGeometry relative="1" as="geometry" />
        </mxCell>
        <mxCell id="YbyOzePQaVwtb7WUy6Pw-5" value="Pilih Aldo" style="rhombus;whiteSpace=wrap;html=1;fillColor=light-dark(#FFFFFF,#FFFFFF);fontColor=light-dark(#000000,#0F0F0F);" vertex="1" parent="1">
          <mxGeometry x="299.97" y="645" width="100" height="100" as="geometry" />
        </mxCell>
        <mxCell id="YbyOzePQaVwtb7WUy6Pw-8" value="suaraNurhadi +1" style="rounded=0;whiteSpace=wrap;html=1;fillColor=light-dark(#FFFFFF,#FFFFFF);fontColor=light-dark(#000000,#000000);" vertex="1" parent="1">
          <mxGeometry x="489.97" y="500" width="140" height="70" as="geometry" />
        </mxCell>
        <mxCell id="YbyOzePQaVwtb7WUy6Pw-16" style="edgeStyle=orthogonalEdgeStyle;rounded=0;orthogonalLoop=1;jettySize=auto;html=1;entryX=0.5;entryY=0;entryDx=0;entryDy=0;" edge="1" parent="1" source="YbyOzePQaVwtb7WUy6Pw-13" target="YbyOzePQaVwtb7WUy6Pw-15">
          <mxGeometry relative="1" as="geometry" />
        </mxCell>
        <mxCell id="YbyOzePQaVwtb7WUy6Pw-13" value="suaraAldo +1" style="rounded=0;whiteSpace=wrap;html=1;fillColor=light-dark(#FFFFFF,#FFFFFF);fontColor=light-dark(#000000,#000000);" vertex="1" parent="1">
          <mxGeometry x="279.97" y="790" width="140" height="70" as="geometry" />
        </mxCell>
        <mxCell id="YbyOzePQaVwtb7WUy6Pw-18" style="edgeStyle=orthogonalEdgeStyle;rounded=0;orthogonalLoop=1;jettySize=auto;html=1;entryX=0;entryY=0.5;entryDx=0;entryDy=0;exitX=0;exitY=0.5;exitDx=0;exitDy=0;" edge="1" parent="1" source="YbyOzePQaVwtb7WUy6Pw-15" target="YbyOzePQaVwtb7WUy6Pw-2">
          <mxGeometry relative="1" as="geometry">
            <mxPoint x="269.97" y="955" as="sourcePoint" />
            <mxPoint x="229.97" y="370" as="targetPoint" />
            <Array as="points">
              <mxPoint x="279.97" y="955" />
              <mxPoint x="79.97" y="955" />
              <mxPoint x="79.97" y="295" />
            </Array>
          </mxGeometry>
        </mxCell>
        <mxCell id="YbyOzePQaVwtb7WUy6Pw-15" value="berhitungUlang" style="rounded=0;whiteSpace=wrap;html=1;fillColor=light-dark(#FFFFFF,#FFFFFF);fontColor=light-dark(#000000,#000000);" vertex="1" parent="1">
          <mxGeometry x="279.97" y="915" width="140" height="70" as="geometry" />
        </mxCell>
        <mxCell id="YbyOzePQaVwtb7WUy6Pw-17" style="edgeStyle=orthogonalEdgeStyle;rounded=0;orthogonalLoop=1;jettySize=auto;html=1;entryX=1.007;entryY=0.6;entryDx=0;entryDy=0;entryPerimeter=0;" edge="1" parent="1" source="YbyOzePQaVwtb7WUy6Pw-8" target="YbyOzePQaVwtb7WUy6Pw-15">
          <mxGeometry relative="1" as="geometry">
            <Array as="points">
              <mxPoint x="669.97" y="535" />
              <mxPoint x="669.97" y="957" />
            </Array>
          </mxGeometry>
        </mxCell>
        <mxCell id="YbyOzePQaVwtb7WUy6Pw-19" value="masaEleksi" style="rhombus;whiteSpace=wrap;html=1;fillColor=light-dark(#FFFFFF,#FFFFFF);fontColor=light-dark(#000000,#0F0F0F);" vertex="1" parent="1">
          <mxGeometry x="309.97" y="370" width="100" height="100" as="geometry" />
        </mxCell>
        <mxCell id="YbyOzePQaVwtb7WUy6Pw-21" style="edgeStyle=orthogonalEdgeStyle;rounded=0;orthogonalLoop=1;jettySize=auto;html=1;entryX=0.575;entryY=0.03;entryDx=0;entryDy=0;entryPerimeter=0;" edge="1" parent="1" source="YbyOzePQaVwtb7WUy6Pw-19" target="YbyOzePQaVwtb7WUy6Pw-4">
          <mxGeometry relative="1" as="geometry" />
        </mxCell>
        <mxCell id="YbyOzePQaVwtb7WUy6Pw-23" value="Ya" style="edgeLabel;html=1;align=center;verticalAlign=middle;resizable=0;points=[];" vertex="1" connectable="0" parent="YbyOzePQaVwtb7WUy6Pw-21">
          <mxGeometry x="-0.2251" y="-2" relative="1" as="geometry">
            <mxPoint as="offset" />
          </mxGeometry>
        </mxCell>
        <mxCell id="YbyOzePQaVwtb7WUy6Pw-24" value="Suara Gugur" style="rounded=0;whiteSpace=wrap;html=1;fillColor=light-dark(#FFFFFF,#FFFFFF);fontColor=light-dark(#000000,#000000);" vertex="1" parent="1">
          <mxGeometry x="575" y="385" width="140" height="70" as="geometry" />
        </mxCell>
        <mxCell id="YbyOzePQaVwtb7WUy6Pw-25" style="edgeStyle=orthogonalEdgeStyle;rounded=0;orthogonalLoop=1;jettySize=auto;html=1;entryX=-0.025;entryY=0.414;entryDx=0;entryDy=0;entryPerimeter=0;" edge="1" parent="1" source="YbyOzePQaVwtb7WUy6Pw-19" target="YbyOzePQaVwtb7WUy6Pw-24">
          <mxGeometry relative="1" as="geometry">
            <Array as="points">
              <mxPoint x="459.97" y="420" />
              <mxPoint x="459.97" y="414" />
            </Array>
          </mxGeometry>
        </mxCell>
        <mxCell id="YbyOzePQaVwtb7WUy6Pw-27" value="Tidak" style="edgeLabel;html=1;align=center;verticalAlign=middle;resizable=0;points=[];" vertex="1" connectable="0" parent="YbyOzePQaVwtb7WUy6Pw-25">
          <mxGeometry x="-0.1733" y="2" relative="1" as="geometry">
            <mxPoint as="offset" />
          </mxGeometry>
        </mxCell>
        <mxCell id="YbyOzePQaVwtb7WUy6Pw-30" value="Eleksi berakhir" style="rounded=0;whiteSpace=wrap;html=1;fillColor=light-dark(#FFFFFF,#FFFFFF);fontColor=light-dark(#000000,#000000);" vertex="1" parent="1">
          <mxGeometry x="565" y="260" width="140" height="70" as="geometry" />
        </mxCell>
        <mxCell id="YbyOzePQaVwtb7WUy6Pw-32" style="edgeStyle=orthogonalEdgeStyle;rounded=0;orthogonalLoop=1;jettySize=auto;html=1;entryX=0.577;entryY=1.011;entryDx=0;entryDy=0;entryPerimeter=0;" edge="1" parent="1" source="YbyOzePQaVwtb7WUy6Pw-24" target="YbyOzePQaVwtb7WUy6Pw-30">
          <mxGeometry relative="1" as="geometry" />
        </mxCell>
        <mxCell id="YbyOzePQaVwtb7WUy6Pw-38" style="edgeStyle=orthogonalEdgeStyle;rounded=0;orthogonalLoop=1;jettySize=auto;html=1;" edge="1" parent="1" source="YbyOzePQaVwtb7WUy6Pw-36" target="YbyOzePQaVwtb7WUy6Pw-2">
          <mxGeometry relative="1" as="geometry" />
        </mxCell>
        <mxCell id="YbyOzePQaVwtb7WUy6Pw-36" value="set suaraNurhadi=0" style="rounded=0;whiteSpace=wrap;html=1;fillColor=light-dark(#FFFFFF,#FFFFFF);fontColor=light-dark(#000000,#000000);" vertex="1" parent="1">
          <mxGeometry x="79.97" y="130" width="140" height="70" as="geometry" />
        </mxCell>
        <mxCell id="YbyOzePQaVwtb7WUy6Pw-39" style="edgeStyle=orthogonalEdgeStyle;rounded=0;orthogonalLoop=1;jettySize=auto;html=1;entryX=0.5;entryY=0;entryDx=0;entryDy=0;" edge="1" parent="1" source="YbyOzePQaVwtb7WUy6Pw-37" target="YbyOzePQaVwtb7WUy6Pw-2">
          <mxGeometry relative="1" as="geometry" />
        </mxCell>
        <mxCell id="YbyOzePQaVwtb7WUy6Pw-37" value="set suaraAldo=0" style="rounded=0;whiteSpace=wrap;html=1;fillColor=light-dark(#FFFFFF,#FFFFFF);fontColor=light-dark(#000000,#000000);" vertex="1" parent="1">
          <mxGeometry x="349.97" y="130" width="140" height="70" as="geometry" />
        </mxCell>
      </root>
    </mxGraphModel>
  </diagram>
</mxfile>
